<svg width="160" height="150" viewBox="0 0 160 150" fill="none" xmlns="http://www.w3.org/2000/svg">
<path d="M22.4757 12.3619C22.4752 12.6625 22.4747 12.9632 22.4742 13.273C22.3433 21.9258 22.3433 21.9258 26.3112 29.3124C28.7329 31.6808 31.4796 32.7279 34.8414 32.8723C38.3849 32.7126 40.5836 31.2905 43.2228 28.9978C47.587 23.9035 46.0281 19.6165 46.2872 12.3619C68.2891 12.3619 90.2909 12.3619 112.959 12.3619C113.102 16.2193 113.245 20.0768 113.392 24.0512C115.663 28.2141 117.093 30.5056 121.185 32.4664C125.306 33.239 128.798 32.4055 132.388 30.2205C134.881 27.5802 136.41 24.5933 136.517 20.9445C136.534 20.4436 136.551 19.9427 136.568 19.4267C136.581 18.908 136.595 18.3892 136.609 17.8548C136.625 17.3276 136.642 16.8005 136.659 16.2575C136.7 14.959 136.737 13.6605 136.771 12.3619C149.576 11.853 149.576 11.853 154.927 16.0689C157.265 18.3248 159.56 22.0376 159.773 25.3607C159.774 25.8683 159.774 25.8683 159.776 26.3862C159.779 26.973 159.779 26.973 159.783 27.5717C159.783 28.002 159.783 28.4324 159.783 28.8758C159.785 29.3326 159.787 29.7894 159.789 30.26C159.795 31.7984 159.798 33.3368 159.8 34.8752C159.804 35.9753 159.807 37.0753 159.811 38.1754C159.821 41.483 159.828 44.7906 159.833 48.0983C159.835 49.0331 159.837 49.9679 159.839 50.9027C159.849 56.7113 159.859 62.52 159.864 68.3286C159.866 69.6742 159.867 71.0198 159.868 72.3653C159.869 72.6998 159.869 73.0342 159.869 73.3787C159.875 78.7893 159.889 84.1998 159.907 89.6104C159.926 95.1695 159.936 100.729 159.938 106.288C159.939 109.407 159.944 112.527 159.959 115.646C159.972 118.583 159.975 121.521 159.969 124.458C159.969 125.534 159.973 126.609 159.981 127.685C160.067 140.585 160.067 140.585 155.43 145.395C152.619 147.698 149.56 149.226 145.913 149.222C145.488 149.223 145.063 149.223 144.625 149.224C143.93 149.222 143.93 149.222 143.221 149.219C142.486 149.219 142.486 149.219 141.736 149.219C140.115 149.219 138.494 149.216 136.872 149.212C135.749 149.212 134.626 149.211 133.502 149.211C130.846 149.209 128.191 149.206 125.535 149.201C122.512 149.196 119.488 149.194 116.464 149.192C110.245 149.187 104.026 149.18 97.8067 149.17C98.6237 147.536 100.866 147.079 102.483 146.371C103.926 145.64 104.815 144.714 105.881 143.509C108.147 141.074 110.044 140.078 113.383 139.952C114.88 139.926 116.371 139.959 117.867 139.997C118.669 140 119.471 140 120.272 139.998C122.369 139.998 124.464 140.025 126.56 140.059C129.922 140.109 133.285 140.116 136.648 140.125C137.818 140.132 138.987 140.15 140.157 140.169C140.875 140.176 141.594 140.183 142.312 140.19C142.634 140.198 142.957 140.206 143.289 140.215C145.344 140.224 146.717 139.866 148.46 138.78C150.494 136.581 150.69 134.847 150.693 131.955C150.697 131.437 150.697 131.437 150.7 130.909C150.707 129.746 150.71 128.582 150.714 127.419C150.718 126.573 150.722 125.728 150.727 124.883C150.739 122.614 150.748 120.346 150.757 118.077C150.765 115.95 150.776 113.824 150.786 111.697C150.816 105.472 150.842 99.2479 150.869 93.0235C150.931 79.1205 150.994 65.2176 151.058 50.8933C104.054 50.8933 57.05 50.8933 8.6217 50.8933C8.65742 64.6802 8.69313 78.4671 8.72993 92.6718C8.74019 99.2018 8.74019 99.2018 8.75065 105.864C8.76503 109.766 8.76503 109.766 8.7817 113.668C8.78906 115.406 8.7916 117.144 8.79121 118.882C8.79088 121.1 8.7988 123.318 8.81266 125.536C8.81635 126.35 8.81715 127.163 8.81471 127.977C8.81183 129.077 8.8196 130.177 8.82995 131.278C8.82491 131.753 8.82491 131.753 8.81977 132.238C8.85822 134.562 9.47107 136.416 10.7864 138.347C13.2399 140.319 15.4185 140.316 18.4845 140.267C18.9446 140.266 19.4047 140.266 19.8787 140.265C20.8739 140.264 21.8691 140.258 22.8643 140.249C24.4404 140.236 26.0161 140.234 27.5923 140.236C32.072 140.238 36.5515 140.221 41.0311 140.193C43.7744 140.177 46.5174 140.175 49.2608 140.182C50.3048 140.182 51.3487 140.176 52.3926 140.164C53.8529 140.147 55.3121 140.149 56.7724 140.155C57.2021 140.145 57.6317 140.136 58.0744 140.126C60.3259 140.156 61.5499 140.367 63.172 141.994C63.6055 142.509 64.0384 143.025 64.4706 143.542C65.6363 144.426 65.6363 144.426 66.7976 145.111C67.2011 145.359 67.6046 145.606 68.0203 145.86C69.7067 146.851 71.4055 147.814 73.1293 148.737C73.1293 148.88 73.1293 149.023 73.1293 149.17C65.1885 149.211 57.2477 149.241 49.3068 149.26C45.6194 149.269 41.932 149.281 38.2447 149.301C35.0294 149.318 31.8142 149.329 28.5989 149.333C26.8977 149.335 25.1965 149.341 23.4953 149.353C21.8912 149.365 20.2873 149.369 18.6832 149.366C17.8195 149.367 16.9559 149.376 16.0923 149.386C11.0089 149.362 7.63318 148.113 3.94733 144.601C1.65618 142.058 0.348939 139.364 0.334159 135.933C0.331428 135.535 0.328697 135.137 0.325883 134.727C0.325077 134.291 0.324271 133.856 0.323441 133.407C0.320933 132.943 0.318425 132.479 0.31584 132.001C0.30801 130.441 0.303311 128.881 0.298655 127.321C0.293817 126.205 0.288832 125.088 0.283712 123.972C0.267592 120.3 0.256933 116.628 0.247074 112.956C0.246219 112.643 0.245364 112.331 0.244483 112.009C0.22752 105.799 0.212938 99.5887 0.203319 93.3787C0.201168 92.0137 0.198984 90.6487 0.196762 89.2837C0.196212 88.9445 0.195663 88.6052 0.195096 88.2557C0.185859 82.767 0.164658 77.2785 0.138644 71.7899C0.112129 66.149 0.0971597 60.5082 0.0931474 54.8673C0.0905947 51.7025 0.0829723 48.5379 0.0622424 45.3732C0.0427398 42.3932 0.0388099 39.4134 0.045197 36.4333C0.0450551 35.3426 0.0397671 34.2518 0.0288106 33.1611C-0.0847166 21.2246 -0.0847165 21.2246 4.48491 16.4515C5.52151 15.5201 6.55818 14.804 7.75582 14.0936C8.08119 13.8983 8.40655 13.703 8.74177 13.5017C12.9025 11.5461 17.993 12.2149 22.4757 12.3619Z" fill="#2F4858"/>
<path d="M102.046 97.1368C106.876 100.731 109.636 105.511 111.661 111.072C111.776 111.372 111.892 111.672 112.011 111.982C113.986 118.167 112.243 125.371 109.496 130.987C105.893 137.57 100.317 142.238 93.0444 144.408C87.4564 145.671 80.0079 145.737 74.8611 143.109C74.4291 142.894 73.9972 142.679 73.5521 142.457C66.9386 138.875 62.4285 133.6 59.9924 126.484C58.0339 118.731 59.1727 110.94 63.1113 104.074C66.2789 98.9712 71.1971 95.6862 76.5928 93.3216C76.9193 93.1731 77.2458 93.0247 77.5821 92.8717C85.7226 89.7993 95.0933 92.6245 102.046 97.1368Z" fill="#E07A5F"/>
<path d="M127.246 0.238403C128.957 1.08853 129.986 2.38496 130.71 4.13484C130.823 5.01592 130.823 5.01592 130.829 5.95939C130.835 6.49269 130.835 6.49269 130.841 7.03675C130.841 7.41741 130.841 7.79806 130.84 8.19025C130.842 8.58523 130.844 8.98022 130.846 9.38718C130.848 10.222 130.849 11.0568 130.847 11.8916C130.845 13.1648 130.855 14.4376 130.866 15.7108C130.867 16.5232 130.868 17.3355 130.867 18.1478C130.871 18.5267 130.875 18.9056 130.879 19.296C130.86 21.8536 130.44 23.6723 128.762 25.7005C127.241 26.9043 125.422 26.817 123.572 26.7981C121.762 26.5476 121.093 25.8398 119.887 24.4829C118.79 22.4689 118.881 20.4553 118.875 18.2205C118.871 17.629 118.871 17.629 118.866 17.0254C118.862 16.1933 118.86 15.361 118.86 14.5288C118.858 13.2593 118.843 11.9905 118.826 10.7211C118.824 9.91072 118.822 9.10037 118.821 8.29002C118.815 7.91248 118.809 7.53494 118.802 7.14596C118.82 4.76992 119.18 3.42868 120.752 1.53721C122.633 -0.274524 124.772 -0.148326 127.246 0.238403Z" fill="#2F4858"/>
<path d="M99.9713 105.44C101.336 106.472 102.017 107.158 102.461 108.823C101.402 113.323 95.18 117.754 92.0144 120.956C91.2547 121.728 90.4982 122.502 89.7448 123.279C88.6511 124.407 87.5478 125.525 86.442 126.641C86.1073 126.99 85.7726 127.339 85.4277 127.698C83.0646 130.053 83.0646 130.053 80.9688 130.385C79.3045 130.055 78.7383 129.538 77.6209 128.278C76.1858 126.718 76.1858 126.718 74.5903 125.329C73.3167 124.29 72.3066 123.101 71.2452 121.85C70.5584 121.024 70.5584 121.024 69.8027 120.363C69.2327 119.727 69.2327 119.727 69.0433 118.239C69.2327 116.697 69.2327 116.697 69.9363 115.642C70.9645 114.965 70.9645 114.965 72.1551 114.667C74.676 115.201 76.2345 117.156 77.9557 118.983C78.256 119.3 78.5562 119.617 78.8656 119.944C79.1357 120.243 79.4058 120.542 79.6841 120.85C80.4337 121.563 80.4337 121.563 81.3231 121.361C82.3599 120.974 82.8018 120.563 83.5366 119.743C83.908 119.335 83.908 119.335 84.287 118.92C84.5517 118.624 84.8164 118.328 85.0891 118.023C87.6457 115.228 90.2573 112.502 92.936 109.824C93.2712 109.487 93.6064 109.15 93.9518 108.803C94.4234 108.332 94.4234 108.332 94.9046 107.852C95.3221 107.435 95.3221 107.435 95.748 107.01C97.1537 105.708 98.0634 105.122 99.9713 105.44Z" fill="#E3E1DF"/>
<path d="M36.7626 0.240384C38.6317 0.980215 39.3878 1.89862 40.2261 3.70388C40.422 5.16433 40.4184 6.6138 40.4138 8.08568C40.4161 8.50889 40.4184 8.93209 40.4207 9.36812C40.4235 10.2615 40.4229 11.1548 40.4192 12.0482C40.4155 13.4118 40.428 14.7746 40.4417 16.1382C40.4424 17.0077 40.4422 17.8772 40.4409 18.7468C40.4482 19.3557 40.4482 19.3557 40.4556 19.9769C40.4291 22.4781 40.1355 23.866 38.4944 25.7837C36.6754 27.0376 34.555 27.0303 32.4333 26.6496C30.7108 25.6675 29.5997 24.6429 28.9698 22.7531C28.9241 22.136 28.9012 21.517 28.8931 20.8982C28.8848 20.3389 28.8848 20.3389 28.8763 19.7683C28.8731 19.3664 28.8699 18.9646 28.8666 18.5506C28.8614 17.9284 28.8614 17.9284 28.856 17.2936C28.85 16.4154 28.8454 15.5373 28.842 14.6591C28.8345 13.3193 28.8155 11.9799 28.7964 10.6402C28.792 9.78643 28.7883 8.93268 28.7854 8.07892C28.7778 7.67972 28.7703 7.28053 28.7625 6.86923C28.7706 4.44285 29.0492 3.01282 30.7015 1.10626C32.6347 -0.182533 34.4959 0.0276671 36.7626 0.240384Z" fill="#2F4858"/>
<path d="M53.8516 62.3902C54.727 62.3939 55.6012 62.3814 56.4765 62.3677C57.0295 62.368 57.5826 62.3683 58.1524 62.3686C58.9113 62.3673 58.9113 62.3673 59.6854 62.3661C61.0071 62.5833 61.0071 62.5833 62.0379 63.2655C63.0034 64.7114 62.9561 65.7383 62.9536 67.4691C62.9542 67.7711 62.9549 68.073 62.9555 68.3842C62.9548 69.0206 62.9498 69.6571 62.9408 70.2934C62.9283 71.2676 62.9319 72.2407 62.9375 73.2148C62.9348 73.8341 62.9312 74.4533 62.9265 75.0726C62.9223 75.6351 62.9181 76.1977 62.9138 76.7774C62.7388 78.1691 62.7388 78.1691 62.2594 79.0003C61.0178 79.7088 59.9542 79.6442 58.5329 79.6556C58.2506 79.6579 57.9682 79.6601 57.6773 79.6625C57.0809 79.6653 56.4845 79.6647 55.888 79.661C54.9774 79.6573 54.068 79.6698 53.1576 79.6835C52.5772 79.6842 51.9969 79.684 51.4165 79.6827C50.8897 79.6835 50.3629 79.6843 49.8202 79.6851C48.4519 79.4679 48.4519 79.4679 47.4151 78.7857C46.4588 77.3414 46.4961 76.3071 46.4902 74.5821C46.4885 74.2801 46.4868 73.9782 46.4851 73.6671C46.484 73.0306 46.4871 72.3942 46.4944 71.7578C46.5037 70.7835 46.4945 69.8106 46.4834 68.8364C46.4845 68.2171 46.4868 67.5979 46.4902 66.9787C46.4921 66.4161 46.4941 65.8535 46.4961 65.2739C46.7202 63.8821 46.7202 63.8821 47.422 63.0509C49.4457 62.1321 51.666 62.3761 53.8516 62.3902Z" fill="#A3BBC8"/>
<path d="M104.225 62.3659C105.135 62.3663 106.044 62.3483 106.955 62.3291C107.535 62.3268 108.116 62.3257 108.696 62.3257C109.223 62.3226 109.75 62.3196 110.292 62.3164C111.661 62.5828 111.661 62.5828 112.697 63.4942C113.541 65.0152 113.616 66.0047 113.622 67.7391C113.626 68.5959 113.626 68.5959 113.629 69.47C113.624 69.9129 113.624 69.9129 113.618 70.3647C113.609 71.2677 113.618 72.1692 113.629 73.0722C113.627 73.6428 113.625 74.2135 113.622 74.8014C113.62 75.3227 113.618 75.844 113.616 76.3811C113.392 77.7356 113.392 77.7356 112.697 78.7714C111.306 79.7056 110.365 79.6846 108.696 79.6821C108.413 79.6827 108.131 79.6834 107.839 79.684C107.244 79.6833 106.648 79.6783 106.052 79.6693C105.141 79.6567 104.23 79.6604 103.319 79.666C102.739 79.6633 102.159 79.6597 101.58 79.655C101.053 79.6508 100.527 79.6466 99.9848 79.6423C98.6725 79.4673 98.6725 79.4673 97.8522 79.0066C97.1135 77.7127 97.1886 76.4118 97.2012 74.9621C97.2 74.6499 97.1987 74.3377 97.1975 74.016C97.1966 73.3566 97.199 72.6972 97.2044 72.0378C97.2113 71.0286 97.2045 70.0201 97.1962 69.0109C97.197 68.3699 97.1987 67.729 97.2012 67.088C97.1986 66.7863 97.196 66.4846 97.1933 66.1737C97.2104 64.9915 97.259 64.0824 97.8522 63.0444C99.7084 61.9997 102.136 62.359 104.225 62.3659Z" fill="#A3BBC8"/>
<path d="M25.9679 87.8945C26.2602 87.8928 26.5526 87.8911 26.8538 87.8894C27.4699 87.8883 28.086 87.8914 28.702 87.8987C29.6449 87.908 30.5864 87.8988 31.5293 87.8877C32.1288 87.8888 32.7283 87.8911 33.3278 87.8945C34.1445 87.8974 34.1445 87.8974 34.9776 87.9004C36.3296 88.1245 36.3296 88.1245 37.1549 88.8204C37.7842 90.197 37.804 91.2925 37.8161 92.8056C37.8184 93.0873 37.8207 93.369 37.823 93.6593C37.8258 94.2532 37.8252 94.847 37.8215 95.4408C37.8178 96.3476 37.8303 97.2532 37.8441 98.1598C37.8447 98.7382 37.8445 99.3166 37.8432 99.8949C37.8444 100.681 37.8444 100.681 37.8456 101.483C37.6284 102.844 37.6284 102.844 36.9335 103.88C35.5474 104.811 34.6103 104.8 32.9473 104.806C32.5247 104.809 32.5247 104.809 32.0936 104.811C31.4997 104.812 30.9059 104.809 30.312 104.802C29.4052 104.793 28.4999 104.802 27.5931 104.813C27.0147 104.812 26.4363 104.809 25.858 104.806C25.3339 104.804 24.8099 104.802 24.27 104.8C22.9086 104.576 22.9086 104.576 21.8727 103.88C20.942 102.495 20.953 101.558 20.9468 99.8949C20.9452 99.6132 20.9435 99.3315 20.9418 99.0412C20.9406 98.4474 20.9438 97.8535 20.9511 97.2597C20.9603 96.3529 20.9511 95.4475 20.9401 94.5407C20.9412 93.9623 20.9434 93.384 20.9468 92.8056C20.9488 92.2816 20.9507 91.7575 20.9527 91.2176C21.1768 89.8562 21.1768 89.8562 21.8659 88.8204C23.2825 87.8749 24.2715 87.9005 25.9679 87.8945Z" fill="#A3BBC8"/>
<path d="M80.0291 62.3653C80.8575 62.3469 80.8575 62.3469 81.7025 62.3281C82.2347 62.327 82.7668 62.3259 83.3151 62.3247C83.8006 62.3217 84.2861 62.3186 84.7863 62.3154C86.5792 62.6742 87.204 63.2847 88.282 64.7465C88.5552 66.157 88.5552 66.157 88.5543 67.7381C88.5551 68.3093 88.5559 68.8805 88.5568 69.469C88.5514 69.7643 88.546 70.0596 88.5404 70.3638C88.5255 71.2668 88.5315 72.1681 88.5399 73.0712C88.5082 77.398 88.5082 77.398 87.5861 78.7704C86.195 79.705 85.2547 79.6837 83.5856 79.6811C83.3029 79.6818 83.0201 79.6824 82.7288 79.683C82.1331 79.6823 81.5374 79.6773 80.9418 79.6683C80.0304 79.6558 79.1201 79.6594 78.2086 79.6651C77.6288 79.6624 77.049 79.6587 76.4692 79.6541C75.9429 79.6498 75.4166 79.6456 74.8744 79.6413C73.5621 79.4663 73.5621 79.4663 72.7428 79.0056C72.0032 77.7128 72.0695 76.411 72.0756 74.9611C72.0733 74.6489 72.0711 74.3367 72.0687 74.015C72.066 73.3557 72.0665 72.6962 72.0702 72.0369C72.0739 71.0275 72.0614 70.0192 72.0477 69.0099C72.047 68.3689 72.0473 67.728 72.0486 67.087C72.0437 66.7853 72.0388 66.4836 72.0338 66.1727C72.0529 64.851 72.1034 64.0698 72.9711 63.0435C75.1639 62.0548 77.6668 62.3606 80.0291 62.3653Z" fill="#A3BBC8"/>
<path d="M25.4776 113.004C25.7696 113.002 26.0615 113.001 26.3623 112.999C26.9791 112.998 27.596 113.001 28.2127 113.008C29.1548 113.017 30.0953 113.008 31.0373 112.997C31.6374 112.998 32.2375 113 32.8375 113.004C33.3825 113.006 33.9274 113.008 34.4888 113.01C35.8968 113.234 35.8968 113.234 36.9395 113.93C37.8613 115.315 37.8524 116.257 37.8586 117.915C37.8602 118.197 37.8619 118.478 37.8636 118.769C37.8648 119.363 37.8616 119.956 37.8544 120.55C37.8451 121.457 37.8543 122.362 37.8654 123.269C37.8642 123.848 37.862 124.426 37.8586 125.004C37.8566 125.528 37.8547 126.052 37.8527 126.592C37.6286 127.954 37.6286 127.954 36.9258 128.989C35.0064 130.288 32.7687 129.957 30.521 129.935C29.65 129.929 28.7811 129.944 27.9103 129.96C27.3587 129.959 26.807 129.959 26.2386 129.958C25.735 129.958 25.2314 129.958 24.7125 129.959C22.8975 129.597 22.2669 129.002 21.177 127.521C20.9106 126.15 20.9106 126.15 20.9199 124.624C20.9211 124.072 20.9222 123.52 20.9233 122.952C20.9296 122.667 20.9359 122.382 20.9423 122.088C20.9605 121.217 20.9601 120.347 20.9571 119.475C20.9989 115.352 20.9989 115.352 21.6515 113.937C22.8882 112.882 23.8722 113.01 25.4776 113.004Z" fill="#A3BBC8"/>
<path d="M130.25 62.3653C131.078 62.3469 131.078 62.3469 131.923 62.3281C132.455 62.327 132.988 62.3259 133.536 62.3247C134.021 62.3217 134.507 62.3186 135.007 62.3154C136.8 62.6742 137.425 63.2847 138.503 64.7465C138.776 66.157 138.776 66.157 138.775 67.7381C138.776 68.3093 138.777 68.8805 138.778 69.469C138.772 69.7643 138.767 70.0596 138.761 70.3638C138.746 71.2668 138.752 72.1681 138.761 73.0712C138.729 77.4016 138.729 77.4016 137.8 78.7695C136.442 79.6889 135.55 79.69 133.916 79.6963C133.363 79.6986 132.81 79.7008 132.24 79.7031C131.954 79.6995 131.667 79.6959 131.371 79.6921C130.496 79.6828 129.622 79.692 128.746 79.7031C128.193 79.7009 127.64 79.6986 127.071 79.6963C126.565 79.6944 126.059 79.6924 125.537 79.6904C124.216 79.4663 124.216 79.4663 123.186 78.7832C122.22 77.34 122.26 76.3097 122.254 74.5806C122.252 74.2786 122.251 73.9766 122.249 73.6655C122.248 73.0291 122.251 72.3926 122.258 71.7562C122.268 70.782 122.258 69.8091 122.247 68.8349C122.248 68.2156 122.251 67.5964 122.254 66.9771C122.256 66.4145 122.258 65.852 122.26 65.2723C122.484 63.8806 122.484 63.8806 123.193 63.0503C125.38 62.0488 127.889 62.3606 130.25 62.3653Z" fill="#A3BBC8"/>
<path d="M128.287 87.9852C128.609 87.9862 128.931 87.9871 129.263 87.9881C130.245 87.9894 131.226 87.9793 132.207 87.9683C132.831 87.9673 133.454 87.967 134.077 87.9675C134.645 87.9662 135.213 87.9649 135.798 87.9635C137.204 88.1247 137.204 88.1247 138.037 88.5964C138.752 89.8671 138.679 90.9762 138.69 92.4254C138.693 92.7173 138.695 93.0093 138.697 93.3101C138.7 93.9269 138.7 94.5437 138.696 95.1605C138.692 96.1024 138.705 97.0432 138.718 97.9851C138.719 98.5851 138.719 99.1852 138.717 99.7853C138.719 100.603 138.719 100.603 138.72 101.437C138.503 102.845 138.503 102.845 137.809 103.888C136.416 104.812 135.471 104.794 133.806 104.791C133.524 104.792 133.241 104.792 132.95 104.793C132.354 104.792 131.758 104.787 131.163 104.778C130.251 104.766 129.341 104.769 128.429 104.775C127.85 104.772 127.27 104.769 126.69 104.764C126.164 104.76 125.637 104.756 125.095 104.751C123.783 104.576 123.783 104.576 122.962 104.117C122.222 102.817 122.308 101.51 122.327 100.056C122.327 99.7427 122.326 99.4294 122.326 99.1067C122.327 98.4455 122.331 97.7843 122.339 97.1231C122.349 96.1092 122.347 95.0958 122.345 94.0819C122.347 93.4395 122.35 92.7971 122.354 92.1548C122.353 91.8508 122.353 91.5468 122.353 91.2337C122.411 87.2334 125.028 87.9978 128.287 87.9852Z" fill="#A3BBC8"/>
<path d="M126.8 113.048C127.093 113.046 127.386 113.044 127.688 113.041C128.306 113.038 128.925 113.039 129.544 113.043C130.49 113.046 131.436 113.034 132.383 113.02C132.984 113.019 133.586 113.02 134.187 113.021C134.734 113.02 135.281 113.019 135.845 113.019C137.204 113.236 137.204 113.236 138.03 113.931C138.658 115.308 138.678 116.404 138.691 117.917C138.693 118.199 138.695 118.48 138.697 118.771C138.7 119.364 138.7 119.958 138.696 120.552C138.692 121.459 138.705 122.364 138.718 123.271C138.719 123.849 138.719 124.428 138.718 125.006C138.719 125.792 138.719 125.792 138.72 126.594C138.503 127.956 138.503 127.956 137.802 128.992C136.441 129.91 135.551 129.905 133.916 129.902C133.087 129.903 133.087 129.903 132.24 129.903C131.81 129.896 131.81 129.896 131.371 129.889C130.496 129.877 129.622 129.88 128.747 129.886C124.595 129.859 124.595 129.859 123.185 129.221C122.117 127.953 122.267 126.912 122.269 125.277C122.269 124.974 122.268 124.672 122.267 124.36C122.268 123.721 122.273 123.082 122.282 122.443C122.295 121.465 122.291 120.488 122.285 119.51C122.288 118.889 122.292 118.268 122.296 117.646C122.301 117.081 122.305 116.516 122.309 115.933C122.484 114.535 122.484 114.535 122.957 113.702C124.23 112.983 125.347 113.059 126.8 113.048Z" fill="#A3BBC8"/>
<path d="M54.4859 87.4762C55.3143 87.4578 55.3143 87.4578 56.1593 87.439C60.1647 87.4306 60.1647 87.4306 62.0167 88.616C63.3136 90.8455 63.2237 92.9956 62.7388 95.4855C62.1211 96.3953 61.4691 96.9504 60.613 97.6367C59.3699 98.8449 58.6193 100.226 57.7871 101.736C57.6339 102.013 57.4807 102.291 57.3228 102.576C56.9596 103.241 56.6016 103.909 56.2447 104.577C54.9817 104.612 53.7198 104.638 52.4565 104.658C51.9208 104.675 51.9208 104.675 51.3742 104.691C50.8552 104.698 50.8552 104.698 50.3257 104.704C50.0083 104.711 49.6908 104.718 49.3638 104.725C48.1052 104.521 47.5813 104.228 46.7201 103.278C46.5441 102.148 46.477 101.202 46.4901 100.072C46.4885 99.7598 46.4868 99.4476 46.4851 99.1259C46.4839 98.4665 46.4871 97.8071 46.4943 97.1477C46.5036 96.1383 46.4944 95.1302 46.4834 94.1208C46.4845 93.4798 46.4867 92.8389 46.4901 92.1979C46.4866 91.8962 46.4831 91.5944 46.4795 91.2836C46.5051 89.9629 46.5613 89.1791 47.4288 88.1543C49.6208 87.1651 52.1242 87.4714 54.4859 87.4762Z" fill="#A3BBC8"/>
<path d="M50.6978 113.152C51.1683 113.163 51.6387 113.175 52.1234 113.187C52.6634 113.21 52.6634 113.21 53.2142 113.233C53.2205 113.516 53.2269 113.799 53.2334 114.09C53.3658 119.414 53.5024 124.528 54.946 129.684C53.8994 129.72 52.8541 129.745 51.8072 129.766C51.512 129.777 51.2167 129.787 50.9126 129.799C49.6474 129.817 48.6475 129.78 47.5001 129.222C46.3292 127.967 46.503 126.965 46.5054 125.274C46.5048 124.971 46.5041 124.669 46.5035 124.357C46.5042 123.718 46.5092 123.079 46.5182 122.44C46.5307 121.462 46.5271 120.485 46.5215 119.507C46.5242 118.886 46.5278 118.265 46.5325 117.643C46.5367 117.078 46.5409 116.513 46.5453 115.93C46.7202 114.532 46.7202 114.532 47.2139 113.693C48.3933 113.019 49.3523 113.108 50.6978 113.152Z" fill="#A3BBC8"/>
<path d="M98.6726 88.1224C100.56 88.0796 102.447 88.0481 104.335 88.0273C104.977 88.0185 105.62 88.0067 106.262 87.9917C107.185 87.9707 108.108 87.9609 109.031 87.9533C109.586 87.9442 110.142 87.9351 110.714 87.9258C112.094 88.1224 112.094 88.1224 112.927 88.8462C113.495 90.0767 113.541 90.942 113.519 92.2962C113.513 92.991 113.513 92.991 113.507 93.6998C113.496 94.1809 113.485 94.662 113.474 95.1576C113.465 95.8893 113.465 95.8893 113.456 96.6357C113.441 97.8389 113.419 99.0416 113.392 100.245C113.107 100.245 112.821 100.245 112.527 100.245C112.026 99.5293 112.026 99.5293 111.444 98.5399C108.754 94.4143 105.049 91.9739 100.797 89.6935C99.5385 88.9883 99.5385 88.9883 98.6726 88.1224Z" fill="#A3BBC8"/>
</svg>
